<svg width="19" height="17" viewBox="0 0 19 17" fill="none" xmlns="http://www.w3.org/2000/svg">
<path fill-rule="evenodd" clip-rule="evenodd" d="M9.5 6.5C7.92585 6.5 6.65 7.8436 6.65 9.5C6.65 11.157 7.92585 12.5 9.5 12.5C11.0738 12.5 12.35 11.157 12.35 9.5C12.35 7.8436 11.0738 6.5 9.5 6.5V6.5ZM17.1 3.5H14.82C14.5065 3.5 14.1687 3.244 14.0697 2.9308L13.4803 1.069C13.3809 0.756 13.0435 0.5 12.73 0.5H6.27C5.9565 0.5 5.61868 0.756 5.51969 1.0692L4.93031 2.931C4.83094 3.244 4.4935 3.5 4.18 3.5H1.9C0.855 3.5 0 4.4 0 5.5V14.5C0 15.6 0.855 16.5 1.9 16.5H17.1C18.145 16.5 19 15.6 19 14.5V5.5C19 4.4 18.145 3.5 17.1 3.5V3.5ZM9.5 14.5C6.87667 14.5 4.75 12.2614 4.75 9.5C4.75 6.7388 6.87667 4.5 9.5 4.5C12.123 4.5 14.25 6.7388 14.25 9.5C14.25 12.2614 12.123 14.5 9.5 14.5V14.5Z" fill="#A7A9AC"/>
</svg>
