<svg width="11" height="16" viewBox="0 0 11 16" fill="none" xmlns="http://www.w3.org/2000/svg">
<path opacity="0.802155" fill-rule="evenodd" clip-rule="evenodd" d="M5.5 0.5C2.46675 0.5 0 2.99187 0 6.12547C0 9.40672 2.75046 12.7634 4.75567 15.1227C4.763 15.132 5.08475 15.5 5.48258 15.5C5.4835 15.5 5.51604 15.5 5.51788 15.5C5.91525 15.5 6.23746 15.132 6.24479 15.1227C8.25092 12.7634 11.0009 9.40719 11.0009 6.12547C11.0009 2.99187 8.53371 0.5 5.5 0.5V0.5ZM5.55362 14.5077C5.544 14.517 5.51604 14.5377 5.49175 14.5536C5.48717 14.5409 5.45325 14.5133 5.43262 14.4913C3.75283 12.5145 0.916667 9.17844 0.916667 6.12547C0.916667 3.54078 2.97321 1.4375 5.5 1.4375C8.02817 1.4375 10.0843 3.54078 10.0843 6.12594C10.0843 9.17844 7.24808 12.5145 5.55362 14.5077V14.5077ZM5.55194 4C4.39403 4 3.45194 4.91762 3.45194 6.04545C3.45194 7.17329 4.39403 8.09091 5.55194 8.09091C6.70985 8.09091 7.65194 7.17329 7.65194 6.04545C7.65194 4.91762 6.70985 4 5.55194 4V4ZM5.55 8.71071C4.03347 8.71071 2.8 7.50929 2.8 6.03214C2.8 4.555 4.03347 3.35357 5.55 3.35357C7.06654 3.35357 8.3 4.555 8.3 6.03214C8.3 7.50929 7.06654 8.71071 5.55 8.71071V8.71071Z" fill="#F7F7F7"/>
</svg>
